inDegrees=no
num_controls=7
num_derivatives=13
num_iterations=75
num_multipliers=7
num_parameters=0
num_slacks=7
num_states=26
objective=0.334550
objective_accelerations=0.034869
objective_balance=0.001151
objective_effort=0.026978
objective_height=0.269879
objective_ligament=0.001673
solver_duration=759.099917
status=Solve_Succeeded
success=true
DataType=double
version=3
OpenSimVersion=4.5
endheader
time	/jointset/ground_pelvis/pelvis_tilt/value	/jointset/ground_pelvis/pelvis_tx/value	/jointset/ground_pelvis/pelvis_ty/value	/jointset/hip_r/hip_flexion_r/value	/jointset/hip_r/hip_adduction_r/value	/jointset/hip_r/hip_rotation_r/value	/jointset/back/lumbar_extension/value	/jointset/patellofemoral_r/patellar_flexion_r/value	/jointset/knee_r/knee_flexion_r/value	/jointset/knee_r/knee_adduction_r/value	/jointset/knee_r/knee_rotation_r/value	/jointset/ankle_r/ankle_angle_r/value	/jointset/subtalar_r/subtalar_angle_r/value	/jointset/ground_pelvis/pelvis_tilt/speed	/jointset/ground_pelvis/pelvis_tx/speed	/jointset/ground_pelvis/pelvis_ty/speed	/jointset/hip_r/hip_flexion_r/speed	/jointset/hip_r/hip_adduction_r/speed	/jointset/hip_r/hip_rotation_r/speed	/jointset/back/lumbar_extension/speed	/jointset/patellofemoral_r/patellar_flexion_r/speed	/jointset/knee_r/knee_flexion_r/speed	/jointset/knee_r/knee_adduction_r/speed	/jointset/knee_r/knee_rotation_r/speed	/jointset/ankle_r/ankle_angle_r/speed	/jointset/subtalar_r/subtalar_angle_r/speed	/forceset/tau_hip_flexion_r	/forceset/tau_hip_adduction_r	/forceset/tau_hip_rotation_r	/forceset/tau_knee_flexion_r	/forceset/tau_ankle_angle_r	/forceset/tau_subtalar_angle_r	/forceset/tau_lumbar_extension	lambda_cid13_p0	lambda_cid14_p0	lambda_cid14_p1	lambda_cid14_p2	lambda_cid14_p3	lambda_cid14_p4	lambda_cid14_p5	/jointset/ground_pelvis/pelvis_tilt/accel	/jointset/ground_pelvis/pelvis_tx/accel	/jointset/ground_pelvis/pelvis_ty/accel	/jointset/hip_r/hip_flexion_r/accel	/jointset/hip_r/hip_adduction_r/accel	/jointset/hip_r/hip_rotation_r/accel	/jointset/back/lumbar_extension/accel	/jointset/patellofemoral_r/patellar_flexion_r/accel	/jointset/knee_r/knee_flexion_r/accel	/jointset/knee_r/knee_adduction_r/accel	/jointset/knee_r/knee_rotation_r/accel	/jointset/ankle_r/ankle_angle_r/accel	/jointset/subtalar_r/subtalar_angle_r/accel	gamma_cid13_p0	gamma_cid14_p0	gamma_cid14_p1	gamma_cid14_p2	gamma_cid14_p3	gamma_cid14_p4	gamma_cid14_p5
1	-0.2673735117074945	-0.001161190238751364	0.646820951768957	1.417445426651201	-0.2520777251182799	0.07972511447235935	-0.7853923392883795	1.485429633264164	1.485429633264166	0.02451030049208485	0.1745327725326495	0.4362272411392126	0.1456586392512095	0.07734595578613379	0.006827023505103795	0.01579452343800138	-0.1093772578834206	-0.001757705064838626	-0.00865986721890683	0.0009842301890484839	-0.01590812332079843	-0.01590812332079812	-0.002247127585069668	-4.176720204759107e-05	0.01628900554012118	0.004465248384112148	-0.3564649068581251	0.03890332807048561	0.04294920815620677	-0.4327727607114553	-0.05659453034742509	-0.0179337174525472	0.3700960987313477	-0.04056874825550372	-71.08641593008009	-23.79477969322843	8.281220004972345	9.472408548465078	-769.1466537491361	55.3389754849736	1.455804748424217	0.1659810730411857	1.782145449168911	-5.515620483880721	-0.06750862722083165	-1.336218709715542	0.07363335460748394	-4.98263739267481	-4.982637392674803	0.3156753308878882	0.0002962630771466391	-1.17291407701987	-0.6379735155880173	5.021333319325403e-10	9.269032609667373e-10	-1.145425771460096e-09	4.866001824524393e-09	-2.399353757364258e-09	-2.989946074678829e-09	-4.696029461533683e-09
1.01	-0.2665284782497489	-0.001084519160135208	0.6470677204943728	1.416077430896081	-0.2520985818866902	0.07957243571448275	-0.7853762506537856	1.485021961921506	1.485021961921504	0.02450403888192095	0.1745320554458481	0.4363317047043159	0.1456716468171455	0.09160906680746711	0.008521280045147742	0.03354443256126458	-0.164161513337711	-0.002412910904400633	-0.02186877310487094	0.002409696618804517	-0.06559759718675358	-0.06559759718675345	0.0009915986346839089	-0.0001014106893901763	0.004625995458862248	-0.001852150383097651	-0.3569075629765038	0.03894184217132839	0.04293786369841882	-0.4324690255945182	-0.05695885012235146	-0.01786381562034507	0.3708189641373187	-0.04056555399928007	-71.20382985805742	-23.77588282572009	8.267816504331931	9.338197666856344	-769.368835788268	55.33888564032902	1.403813854127264	0.1732605801982905	1.769194349461189	-5.45077124622973	-0.06441342137505743	-1.312159815027811	0.2034332696293709	-4.957820432016153	-4.957820432016179	0.327490868413008	-0.00905579379368112	-1.159651588300322	-0.6268825401500427	1.252915168815003e-09	5.833633658493017e-10	7.994291058016645e-09	1.26209039256011e-08	-2.689160631102034e-09	-4.642645234843606e-09	6.698091881723387e-09
1.02	-0.2655423637667637	-0.0009904829889761059	0.6474915444521323	1.414163403952411	-0.2521259680853068	0.07928788124035065	-0.7853406213583635	1.484118252230497	1.484118252230491	0.02453006845413883	0.174530749696349	0.4363202067458236	0.1456218284988366	0.105562160834379	0.01030004201369313	0.05120556990678132	-0.2185834955930633	-0.003063591106011559	-0.03503501047047485	0.004892362347349434	-0.1151157929911196	-0.1151157929911199	0.004211108890193833	-0.0001594997428785965	-0.006903299207252672	-0.008099928464812448	-0.3573502190948861	0.03898035627217498	0.04292651924060634	-0.432165290477583	-0.05732316989727625	-0.01779391378813446	0.3715418295432854	-0.04056814779183025	-71.32858482205303	-23.75474822858604	8.250032141122222	9.207002867746164	-769.7322057276823	55.34786701151548	1.393801349539917	0.182882158741501	1.764391093619618	-5.443165844093143	-0.06660349963062794	-1.327685005643515	0.2850732143651395	-4.948381780356972	-4.948381780357019	0.311832138039157	0.0006071498480033498	-1.146170993991015	-0.6240493784890171	2.267776909912006e-09	2.358342061069521e-10	1.878127685995653e-08	1.914942757883391e-08	-3.004464380222067e-09	-8.122857377533123e-09	2.204721617696733e-08
1.03	-0.2644181810804159	-0.0008782537417618761	0.6480915385846752	1.41170689438978	-0.2521598160852703	0.07887189590068816	-0.7852752013664993	1.482720070831232	1.482720070831227	0.02458822915633125	0.1745288645656065	0.4361939172642866	0.1455098649171872	0.1192291183359897	0.01215818725737695	0.06877842942644165	-0.2726628340819853	-0.003703153144430245	-0.04815119056826482	0.00833871839837242	-0.1645063120567994	-0.1645063120567996	0.007423173765576562	-0.0002179384180079163	-0.01834924359623678	-0.01428320260043004	-0.3573879118497933	0.03900590814703071	0.04293070345212525	-0.4317665491249934	-0.05753107665858497	-0.01773603514837259	0.3719378555918036	-0.04058450675969916	-71.38545980962563	-23.72506435771902	8.22873080697938	9.101704569673149	-769.8016345354013	55.34743863533561	1.34635432189183	0.1891370155414906	1.751506959285416	-5.38198052527519	-0.06219968808569007	-1.301954603734099	0.3964791562329048	-4.932261412105279	-4.932261412105222	0.3262167867565108	-0.00912401664969263	-1.143004448365428	-0.614020801095934	3.285333343909159e-09	-1.117356604172844e-10	2.958507152896238e-08	2.566543716627238e-08	-3.320028301539878e-09	-1.162171761188107e-08	3.743669764519077e-08
1.04	-0.2631586865447698	-0.0007470717804388391	0.6488668160280441	1.408711258907463	-0.2521999731320465	0.07832507474167454	-0.7851709053429667	1.480828409352823	1.480828409352819	0.02467857513217422	0.1745263841200278	0.4359533286814504	0.1453363577201818	0.1326245306944115	0.01409058483545458	0.08626223207195911	-0.326408679530245	-0.004325400468379975	-0.06120217434155031	0.0126675686798787	-0.2138118088197508	-0.2138118088197507	0.01064816361970621	-0.0002785627113862471	-0.02976311946575321	-0.02040865153596135	-0.3574256046046977	0.03903146002189419	0.04293488766362654	-0.4313678077724046	-0.05773898341989164	-0.01767815650859477	0.372333881640324	-0.04060672702691704	-71.44972604054591	-23.69323291008084	8.203155920509953	8.998302822258706	-770.0129448170194	55.35605660276995	1.339492320902107	0.1977326256202772	1.746579718791039	-5.37646723596067	-0.06314055673685255	-1.314645740742639	0.4615720604617686	-4.931377319811293	-4.931377319811316	0.3144171337885431	0.0001700261982403029	-1.139757290097453	-0.6124843384717823	3.91310820540727e-09	-1.07779463109419e-10	3.864216931208525e-08	3.147988208984237e-08	-4.385287010669008e-09	-1.36788581548476e-08	4.864685534303519e-08
1.05	-0.261766566624262	-0.0005961719604964032	0.649816413924983	1.405179933668855	-0.2522462517750366	0.07764810683852892	-0.7850188419474192	1.47844422504564	1.478444225045638	0.02480121482285156	0.1745232934299169	0.4355987483805676	0.1451019241644153	0.1457544390043831	0.01610400453181974	0.1036349985410211	-0.3797878682632043	-0.004926030618722157	-0.07417411783276474	0.01790217597888724	-0.26300004582263	-0.2630000458226298	0.01388264563096801	-0.0003397838483016	-0.04114912013800313	-0.02646476683917256	-0.3572510347305817	0.03903154309630482	0.04293984961273404	-0.4306166407039957	-0.0579533566806566	-0.01760073286444416	0.3725847035383353	-0.04063661187194852	-71.48831650839236	-23.64003217071022	8.164596088547286	8.881902750251578	-769.8617131533026	55.3458724363008	1.292988058388485	0.2053393427130069	1.729269636229075	-5.308369810068326	-0.05787310732855688	-1.285875849903821	0.5779648969540501	-4.908796783325191	-4.908796783325149	0.3283974110516294	-0.00928874403217936	-1.137450448393337	-0.6001690913377881	4.528702392764787e-09	-9.283807630680235e-11	4.764468281752428e-08	3.727240311766647e-08	-5.473973681917239e-09	-1.569094495745847e-08	5.972640917305531e-08
1.06	-0.2602444980261875	-0.0004246994033766111	0.6509390683916657	1.401116871519295	-0.2522984064921603	0.07684193806115769	-0.7848097205124135	1.475568908389868	1.475568908389868	0.0249562860688922	0.1745195864163629	0.4351304222744389	0.1448073306625979	0.1586142662081102	0.01820513227092578	0.1208735460207053	-0.4327560617203533	-0.005500615294893705	-0.08704234918769931	0.02407917657124454	-0.3120382785374671	-0.3120382785374666	0.01713447469249496	-0.0004018274010449529	-0.0525122805144356	-0.03244064074606491	-0.3570764648564625	0.03903162617072452	0.0429448115618356	-0.4298654736355871	-0.05816772994141922	-0.01752330922027526	0.3728355254363489	-0.04067249744955401	-71.53442707306995	-23.58478153749532	8.121864090461198	8.766637566325628	-769.8536999298267	55.34500731039437	1.285476099653183	0.2152742341684719	1.719735920915471	-5.294268180798594	-0.05793146190274522	-1.293903313486689	0.6500507191315098	-4.901376462202854	-4.901376462202834	0.3178865438415772	5.543032690194082e-06	-1.135189230933939	-0.5964360592080418	5.053508990209067e-09	-2.099535393181401e-10	5.531054699307106e-08	4.174881346177674e-08	-6.07767633941819e-09	-1.785530147621345e-08	6.899429667768029e-08
1.07	-0.258595127040394	-0.0002317642992377087	0.6522333796199414	1.39652623740247	-0.2523561651966339	0.07590760753338038	-0.7845342299494426	1.472204020775163	1.472204020775161	0.02514392656851984	0.1745152716012251	0.4345485378774777	0.1444534004047696	0.1712174348776212	0.02039772960622831	0.1379602649099509	-0.485293699328404	-0.006045323713581434	-0.09980204347309944	0.03116836133484974	-0.3609079051190552	-0.3609079051190549	0.02039678702545697	-0.0004612082548086031	-0.06386499878814082	-0.03832961302434568	-0.3565421338020254	0.03898710888882582	0.04295508293097686	-0.4288654560162962	-0.05825115819870309	-0.0174389703797168	0.3727998920524929	-0.0407171360971964	-71.5096424699031	-23.50820918108074	8.068987515523396	8.628394962418547	-769.4388080475317	55.33535388739136	1.241363043621749	0.2236273013746186	1.698870627982045	-5.221952309358308	-0.05186218224473182	-1.263746371138021	0.760766151738241	-4.875055985501707	-4.875055985501718	0.3308819681170361	-0.008907283031796373	-1.135375862042968	-0.5827425264023397	5.5734864605303e-09	-3.340933028514975e-10	6.290531280000655e-08	4.615521791845541e-08	-6.655581974911304e-09	-2.002775744795482e-08	7.816581895223107e-08
